# File created by Blade
# Date/Time:  Wed Jan 21 15:15:22 2015
# Frame Rate: 120.000 fps
#------------------------------------------------------
:FULLY-SPECIFIED
:DEGREES
714
root 19.347806 36.749630 -19.234778 174.073973 -69.518998 -124.000650
Spine -31.589918 -10.497534 3.155405
Head -10.828373 22.731190 17.911556
LeftShoulder -12.486228 -24.474588 4.470627
LeftArm -5.320638 10.010409 -54.934962
LeftForeArm 2.296160 -0.000000 5.435388
LeftHand -0.521576 0.000000 -3.430716
LeftHandThumb1 -26.253704 0.000000 33.147579
RightShoulder -21.687076 -23.677902 4.120676
RightArm -10.030688 9.892137 62.323365
RightForeArm -44.666302 -0.000000 9.744214
RightHand -3.484223 -0.000000 25.810509
RightHandThumb1 -24.326973 -0.000000 -32.862282
LeftUpLeg -46.296055 13.866134 -3.415316
LeftLeg -7.122175 -0.000000 0.000000
LeftFoot -15.825743 27.885950 -9.903197
LeftToeBase 19.110276 -0.000000 -0.000000
RightUpLeg 7.027118 4.671031 -7.700769
RightLeg 129.253031 -0.000000 -0.000000
RightFoot 13.754440 -37.931827 -5.689787
RightToeBase 22.085312 -0.000000 -0.000000
715
root 19.408991 36.777757 -19.241531 174.038618 -69.125008 -123.555110
Spine -31.593826 -10.415085 3.308489
Head -11.005753 22.967158 17.997611
LeftShoulder -12.471903 -24.506267 4.542482
LeftArm -5.115508 10.253845 -54.858283
LeftForeArm 2.186010 -0.000000 5.380504
LeftHand -0.488048 -0.000000 -3.357600
LeftHandThumb1 -26.253704 0.000000 33.147579
RightShoulder -21.717635 -23.602509 4.157990
RightArm -9.998542 9.931626 62.066428
RightForeArm -44.696427 -0.000000 9.813672
RightHand -3.503798 -0.000000 25.835253
RightHandThumb1 -24.326973 -0.000000 -32.862282
LeftUpLeg -46.791059 14.209909 -3.286802
LeftLeg -7.140764 -0.000000 0.000000
LeftFoot -15.743286 27.992218 -9.873932
LeftToeBase 19.115289 -0.000000 -0.000000
RightUpLeg 6.962736 4.919985 -7.755732
RightLeg 129.190228 -0.000000 -0.000000
RightFoot 13.865793 -37.856588 -5.679258
RightToeBase 22.165483 -0.000000 -0.000000
716
root 19.468389 36.805981 -19.246490 174.122482 -68.731464 -123.230908
Spine -31.632210 -10.332288 3.405307
Head -11.086214 23.291498 18.203963
LeftShoulder -12.425802 -24.422002 4.604424
LeftArm -4.823890 10.353460 -54.758207
LeftForeArm 2.223787 -0.000000 5.279961
LeftHand -0.589204 -0.000000 -3.367737
LeftHandThumb1 -26.253704 0.000000 33.147579
RightShoulder -21.752932 -23.592657 4.218967
RightArm -9.935695 9.890727 61.846132
RightForeArm -44.821819 0.000000 9.884258
RightHand -3.492757 0.000000 25.866283
RightHandThumb1 -24.326973 -0.000000 -32.862282
LeftUpLeg -47.278710 14.560784 -3.198299
LeftLeg -7.163723 -0.000000 0.000000
LeftFoot -15.682773 28.070924 -9.895029
LeftToeBase 19.167933 -0.000000 -0.000000
RightUpLeg 6.889483 5.168059 -7.853323
RightLeg 129.117741 -0.000000 -0.000000
RightFoot 14.022101 -37.825275 -5.781578
RightToeBase 22.212852 -0.000000 -0.000000
717
root 19.527707 36.834223 -19.252527 174.223124 -68.342730 -122.925160
Spine -31.684551 -10.267640 3.475116
Head -11.146974 23.521620 18.416867
LeftShoulder -12.355150 -24.393369 4.671058
LeftArm -4.647389 10.560149 -54.636035
LeftForeArm 2.003746 -0.000000 5.275467
LeftHand -0.482872 -0.000000 -3.426476
LeftHandThumb1 -26.253704 0.000000 33.147579
RightShoulder -21.753519 -23.570295 4.271415
RightArm -9.868420 10.021212 61.596229
RightForeArm -44.682001 0.000000 9.863247
RightHand -3.465427 -0.000000 25.909538
RightHandThumb1 -24.326973 -0.000000 -32.862282
LeftUpLeg -47.775192 14.916933 -3.111664
LeftLeg -7.160702 -0.000000 0.000000
LeftFoot -15.622278 28.120443 -9.913436
LeftToeBase 19.194496 -0.000000 -0.000000
RightUpLeg 6.812825 5.434228 -7.969301
RightLeg 129.096947 -0.000000 -0.000000
RightFoot 14.081350 -37.633320 -5.903898
RightToeBase 22.159274 -0.000000 -0.000000
718
root 19.587296 36.864179 -19.257253 174.304817 -67.979982 -122.568363
Spine -31.777281 -10.215914 3.577470
Head -11.203276 23.777221 18.639881
LeftShoulder -12.295430 -24.368645 4.748021
LeftArm -4.460033 10.576118 -54.526974
LeftForeArm 2.154946 -0.000000 5.249518
LeftHand -0.521986 0.000000 -3.501307
LeftHandThumb1 -26.253704 0.000000 33.147579
RightShoulder -21.788325 -23.561434 4.301189
RightArm -9.823766 10.058560 61.391155
RightForeArm -44.971624 0.000000 9.928380
RightHand -3.404282 -0.000000 25.899698
RightHandThumb1 -24.326973 -0.000000 -32.862282
LeftUpLeg -48.311286 15.244205 -3.012196
LeftLeg -7.134145 -0.000000 0.000000
LeftFoot -15.560721 28.142909 -9.966384
LeftToeBase 19.232025 -0.000000 -0.000000
RightUpLeg 6.707913 5.595970 -8.083870
RightLeg 128.980954 -0.000000 -0.000000
RightFoot 14.219289 -37.791088 -5.967069
RightToeBase 22.013680 -0.000000 -0.000000
719
root 19.645109 36.891077 -19.262427 174.399748 -67.657536 -122.297922
Spine -31.783499 -10.188074 3.603285
Head -11.277722 24.003834 18.876113
LeftShoulder -12.200943 -24.426511 4.803443
LeftArm -4.321676 10.596323 -54.379520
LeftForeArm 2.211941 -0.000000 5.211989
LeftHand -0.493931 -0.000000 -3.560662
LeftHandThumb1 -26.253704 0.000000 33.147579
RightShoulder -21.816416 -23.475125 4.324943
RightArm -9.813861 10.327654 61.154538
RightForeArm -45.354155 -0.000000 9.905740
RightHand -3.285629 -0.000000 25.926278
RightHandThumb1 -24.326973 -0.000000 -32.862282
LeftUpLeg -48.766872 15.544404 -2.933082
LeftLeg -7.116069 -0.000000 0.000000
LeftFoot -15.490007 28.146250 -10.014122
LeftToeBase 19.262305 -0.000000 -0.000000
RightUpLeg 6.694337 5.750045 -8.205827
RightLeg 128.859893 -0.000000 -0.000000
RightFoot 14.226184 -37.952067 -5.868614
RightToeBase 22.089969 -0.000000 -0.000000
720
root 19.702079 36.919379 -19.266810 174.552102 -67.363415 -122.022580
Spine -31.887813 -10.184617 3.660590
Head -11.314678 24.303732 19.115798
LeftShoulder -12.088592 -24.502112 4.855882
LeftArm -4.267095 10.708469 -54.241559
LeftForeArm 2.099608 -0.000000 5.196862
LeftHand -0.538626 -0.000000 -3.446969
LeftHandThumb1 -26.253704 0.000000 33.147579
RightShoulder -21.923900 -23.547798 4.366929
RightArm -9.636355 10.444636 60.982031
RightForeArm -45.199390 -0.000000 9.941100
RightHand -3.374980 -0.000000 26.045224
RightHandThumb1 -24.326973 -0.000000 -32.862282
LeftUpLeg -49.308822 15.856111 -2.931433
LeftLeg -7.091128 -0.000000 0.000000
LeftFoot -15.459370 28.071773 -10.144107
LeftToeBase 19.414398 -0.000000 -0.000000
RightUpLeg 6.615438 5.854695 -8.352864
RightLeg 128.748014 -0.000000 -0.000000
RightFoot 14.229563 -38.012846 -5.882115
RightToeBase 22.104187 -0.000000 -0.000000
721
root 19.759307 36.946209 -19.269711 174.671030 -67.102854 -121.787891
Spine -31.889851 -10.245403 3.675076
Head -11.394910 24.505454 19.321329
LeftShoulder -12.069759 -24.502476 4.906339
LeftArm -4.096788 11.155588 -54.082751
LeftForeArm 1.789339 -0.000000 5.324489
LeftHand -0.512973 -0.000000 -3.508276
LeftHandThumb1 -26.253704 0.000000 33.147579
RightShoulder -21.871964 -23.409971 4.378369
RightArm -9.783061 10.315903 60.775812
RightForeArm -45.233227 -0.000000 10.089716
RightHand -3.275200 -0.000000 25.987374
RightHandThumb1 -24.326973 -0.000000 -32.862282
LeftUpLeg -49.791042 16.137311 -2.933285
LeftLeg -7.038231 -0.000000 0.000000
LeftFoot -15.417339 27.993521 -10.285602
LeftToeBase 19.487990 -0.000000 -0.000000
RightUpLeg 6.636886 5.992167 -8.487170
RightLeg 128.683543 -0.000000 -0.000000
RightFoot 14.176148 -37.924849 -5.932355
RightToeBase 22.019720 -0.000000 -0.000000
722
root 19.815650 36.968408 -19.273284 174.796604 -66.858298 -121.597472
Spine -31.856405 -10.261278 3.622776
Head -11.490874 24.687868 19.552234
LeftShoulder -11.935251 -24.504609 4.947687
LeftArm -3.898695 11.275385 -53.926406
LeftForeArm 1.654294 -0.000000 5.285116
LeftHand -0.492152 -0.000000 -3.482090
LeftHandThumb1 -26.253704 0.000000 33.147579
RightShoulder -21.950474 -23.411624 4.433931
RightArm -9.718350 10.337324 60.639784
RightForeArm -45.053868 -0.000000 10.126633
RightHand -3.359313 -0.000000 25.937483
RightHandThumb1 -24.326973 -0.000000 -32.862282
LeftUpLeg -50.262670 16.439823 -2.985460
LeftLeg -6.949977 -0.000000 0.000000
LeftFoot -15.325550 27.884129 -10.305166
LeftToeBase 19.406680 -0.000000 -0.000000
RightUpLeg 6.680920 6.029208 -8.660221
RightLeg 128.526971 -0.000000 -0.000000
RightFoot 14.183652 -38.221438 -5.737937
RightToeBase 21.936964 -0.000000 -0.000000
723
root 19.873909 36.995983 -19.277783 174.838583 -66.578155 -121.265815
Spine -31.872294 -10.273435 3.690727
Head -11.600466 24.985522 19.731182
LeftShoulder -11.882010 -24.615178 5.010703
LeftArm -3.852387 11.457952 -53.789226
LeftForeArm 1.785047 -0.000000 5.398930
LeftHand -0.612040 -0.000000 -3.078118
LeftHandThumb1 -26.253704 0.000000 33.147579
RightShoulder -21.934565 -23.308000 4.406045
RightArm -9.761501 10.434595 60.450157
RightForeArm -45.008191 0.000000 10.156177
RightHand -3.314464 -0.000000 26.001134
RightHandThumb1 -24.326973 -0.000000 -32.862282
LeftUpLeg -50.757940 16.760799 -2.986473
LeftLeg -6.932435 -0.000000 0.000000
LeftFoot -15.263265 27.805302 -10.439731
LeftToeBase 19.444878 -0.000000 -0.000000
RightUpLeg 6.649153 6.134144 -8.770161
RightLeg 128.467381 -0.000000 -0.000000
RightFoot 14.120255 -38.171427 -5.709488
RightToeBase 22.211996 -0.000000 -0.000000
